<svg stroke="#000" viewBox="0 0 512.002 512.002" xmlns="http://www.w3.org/2000/svg">
<path d="m144.987 175.895c-12.061 9.278-26.271 14.118-42.664 14.118-39.493 0-71.509-32.016-71.509-71.509s32.016-71.509 71.509-71.509 71.509 32.016 71.509 71.509c0 0-1.372 18.813-6.558 28.837-7.148 13.818-22.287 28.554-22.287 28.554z" fill="#f8d176"/>
<path d="m46.356 134.049c0-39.493 32.016-71.509 71.509-71.509 15.78 0 30.359 5.123 42.185 13.781-13.01-17.773-34.015-29.323-57.728-29.323-39.493 0-71.509 32.016-71.509 71.509 0 23.713 11.55 44.718 29.323 57.728-8.657-11.828-13.78-26.406-13.78-42.186z" fill="#ffec97"/>
<path d="m120.021 167.162 13.628 15.814c3.969-1.963 7.751-4.321 11.338-7.081 0 0 15.139-14.736 22.287-28.553 1.277-2.468 2.322-5.471 3.172-8.593l-65.941-13.366c-.001 15.337 5.506 30.162 15.516 41.779z" fill="#efb13f"/>
<path d="m372.575 118.505h-260.457c-6.502 0-10.001 7.635-5.757 12.56l126.781 147.125h18.407l126.781-147.124c4.246-4.926.747-12.561-5.755-12.561z" fill="#fff"/>
<path d="m299.905 487.06-47.722-23.75h-19.704l-47.717 23.75c-8.072 4.018-5.213 16.18 3.804 16.18h107.535c9.018 0 11.877-12.162 3.804-16.18z" fill="#fff"/>
<path d="m308.114 186.209c-28.753 3.607-41.676-2.085-56.199-7.988-21.446-8.716-32.265-24.041-51.974-29.819-17.079-5.007-26.11-4.964-39.889.438l-10.771 4.526 88.914 103.517c1.131 1.312 2.777 2.067 4.509 2.067 1.732 0 3.379-.754 4.509-2.067z" fill="#b51a00"/>
<path d="m247.211 256.883 52.903-61.393 7.998-9.282c-9.568 1.201-17.376 1.367-24.081.842l-45.52 70.163c1.111 1.104 2.613 1.734 4.189 1.734 1.735.002 3.38-.752 4.511-2.064z" fill="#ef8990"/>
<path d="m488.978 5.382c-1.866-4.463-6.998-6.569-11.461-4.702l-91.454 38.235c-1.487.621-2.773 1.641-3.719 2.946l-49.13 67.885h-150.819c-4.38-40.153-38.482-71.509-79.781-71.509-43.679 0-80.27 36.565-80.27 80.269 0 44.261 36.009 80.269 80.27 80.269 15.179 0 28.976-3.782 41.14-11.228l12.551 14.564c3.159 3.666 8.692 4.075 12.353.918 3.666-3.158 4.076-8.688.918-12.355l-23.158-26.873c14.451-7.252 28.583-10.111 42.101-8.468 15.145 1.84 25.076 8.706 36.574 16.656 8.44 5.836 17.165 11.87 28.707 16.562 11.848 4.814 24.499 7.22 37.882 7.22 6.899 0 13.994-.645 21.271-1.924l-70.322 81.607-49.408-57.336c-3.159-3.665-8.691-4.074-12.353-.918-3.666 3.158-4.076 8.69-.918 12.355l52.682 61.135c.374.433.79.819 1.232 1.166v161.128l-85.218 42.415c-3.639 1.811-5.555 5.889-4.624 9.847s4.462 6.755 8.527 6.755h180.161c4.066 0 7.596-2.797 8.527-6.755s-.985-8.036-4.624-9.847l-85.218-42.411v-161.133c.443-.347.858-.732 1.232-1.166l143.446-166.466c2.235-2.595 2.754-6.254 1.328-9.368-1.428-3.114-4.539-5.11-7.963-5.11h-34.599l40.251-55.618 89.18-37.286c4.466-1.865 6.571-6.996 4.706-11.459-1.867-4.462 1.865 4.463 0 0zm-299.167 489.098 52.817-26.288 52.824 26.288zm-25.071-384.734h-53.125l26.703-42.801c14.052 9.762 23.937 25.106 26.422 42.801zm-62.125-53.99c6.987 0 13.704 1.166 19.986 3.282l-29.223 46.842-38.479-28.058c11.518-13.488 28.63-22.066 47.716-22.066zm-62.75 62.749c0-9.223 2.017-17.979 5.606-25.876l38.583 28.134-26.209 41.651c-11.11-11.324-17.98-26.826-17.98-43.909zm62.75 62.75c-11.195 0-21.706-2.961-30.815-8.12l25.127-39.932 35.191 40.839c-8.799 4.786-18.682 7.213-29.503 7.213zm230.694-11.028c-27.409 9.897-51.935 10.617-72.909 2.093-9.757-3.966-17.68-9.443-25.34-14.741-12.286-8.494-24.988-17.277-44.426-19.638-18.277-2.22-37.077 1.91-55.952 12.238l-19.745-22.914h222.737.007.009 32.638z"/>
</svg>